<mxfile host="Electron" modified="2024-04-03T17:17:58.668Z" agent="Mozilla/5.0 (X11; Linux x86_64) AppleWebKit/537.36 (KHTML, like Gecko) draw.io/24.1.0 Chrome/120.0.6099.109 Electron/28.1.0 Safari/537.36" etag="WtIAIbvb01gdXQ1amDcR" version="24.1.0" type="device">
  <diagram id="C5RBs43oDa-KdzZeNtuy" name="Page-1">
    <mxGraphModel dx="1839" dy="1155" grid="1" gridSize="10" guides="1" tooltips="1" connect="1" arrows="1" fold="1" page="1" pageScale="1" pageWidth="827" pageHeight="1169" math="0" shadow="0">
      <root>
        <mxCell id="WIyWlLk6GJQsqaUBKTNV-0" />
        <mxCell id="WIyWlLk6GJQsqaUBKTNV-1" parent="WIyWlLk6GJQsqaUBKTNV-0" />
        <mxCell id="CWmGrvaaXz-5sUjLNDUD-9" style="edgeStyle=orthogonalEdgeStyle;rounded=0;orthogonalLoop=1;jettySize=auto;html=1;endArrow=diamondThin;endFill=0;endSize=24;" parent="WIyWlLk6GJQsqaUBKTNV-1" source="7qF5mrvs6irYJMopvK7C-4" target="CWmGrvaaXz-5sUjLNDUD-0" edge="1">
          <mxGeometry relative="1" as="geometry" />
        </mxCell>
        <mxCell id="CWmGrvaaXz-5sUjLNDUD-12" value="1" style="edgeLabel;html=1;align=center;verticalAlign=middle;resizable=0;points=[];" parent="CWmGrvaaXz-5sUjLNDUD-9" vertex="1" connectable="0">
          <mxGeometry x="-0.9149" y="1" relative="1" as="geometry">
            <mxPoint as="offset" />
          </mxGeometry>
        </mxCell>
        <mxCell id="CWmGrvaaXz-5sUjLNDUD-14" value="has a" style="edgeLabel;html=1;align=center;verticalAlign=middle;resizable=0;points=[];" parent="CWmGrvaaXz-5sUjLNDUD-9" vertex="1" connectable="0">
          <mxGeometry x="-0.2097" relative="1" as="geometry">
            <mxPoint as="offset" />
          </mxGeometry>
        </mxCell>
        <mxCell id="7qF5mrvs6irYJMopvK7C-4" value="ParagraphViewer" style="swimlane;fontStyle=1;align=center;verticalAlign=top;childLayout=stackLayout;horizontal=1;startSize=26;horizontalStack=0;resizeParent=1;resizeParentMax=0;resizeLast=0;collapsible=1;marginBottom=0;" parent="WIyWlLk6GJQsqaUBKTNV-1" vertex="1">
          <mxGeometry x="90" y="485" width="230" height="250" as="geometry" />
        </mxCell>
        <mxCell id="7qF5mrvs6irYJMopvK7C-5" value="- paragraphs: string[0..*]&#xa;- paragraph_num: int&#xa;- font: Font&#xa;&#xa;- paragraph_view: TextView&#xa;- next_button&#xa;- previous_button" style="text;strokeColor=none;fillColor=none;align=left;verticalAlign=top;spacingLeft=4;spacingRight=4;overflow=hidden;rotatable=0;points=[[0,0.5],[1,0.5]];portConstraint=eastwest;" parent="7qF5mrvs6irYJMopvK7C-4" vertex="1">
          <mxGeometry y="26" width="230" height="104" as="geometry" />
        </mxCell>
        <mxCell id="7qF5mrvs6irYJMopvK7C-6" value="" style="line;strokeWidth=1;fillColor=none;align=left;verticalAlign=middle;spacingTop=-1;spacingLeft=3;spacingRight=3;rotatable=0;labelPosition=right;points=[];portConstraint=eastwest;" parent="7qF5mrvs6irYJMopvK7C-4" vertex="1">
          <mxGeometry y="130" width="230" height="8" as="geometry" />
        </mxCell>
        <mxCell id="7qF5mrvs6irYJMopvK7C-7" value="+ showParagraphs(text_file: File)&#xa;+ showNextParagraph()&#xa;+ showPreviousParagraph()&#xa;+ showParagraphAt(paragraph_num: int)&#xa;&#xa;+ zoom_in()&#xa;+ zoom_out()&#xa;" style="text;strokeColor=none;fillColor=none;align=left;verticalAlign=top;spacingLeft=4;spacingRight=4;overflow=hidden;rotatable=0;points=[[0,0.5],[1,0.5]];portConstraint=eastwest;" parent="7qF5mrvs6irYJMopvK7C-4" vertex="1">
          <mxGeometry y="138" width="230" height="112" as="geometry" />
        </mxCell>
        <mxCell id="CWmGrvaaXz-5sUjLNDUD-4" style="edgeStyle=orthogonalEdgeStyle;rounded=0;orthogonalLoop=1;jettySize=auto;html=1;endArrow=diamondThin;endFill=0;endSize=24;" parent="WIyWlLk6GJQsqaUBKTNV-1" source="7qF5mrvs6irYJMopvK7C-15" target="CWmGrvaaXz-5sUjLNDUD-0" edge="1">
          <mxGeometry relative="1" as="geometry" />
        </mxCell>
        <mxCell id="CWmGrvaaXz-5sUjLNDUD-6" value="1" style="edgeLabel;html=1;align=center;verticalAlign=middle;resizable=0;points=[];" parent="CWmGrvaaXz-5sUjLNDUD-4" vertex="1" connectable="0">
          <mxGeometry x="-0.8771" y="-1" relative="1" as="geometry">
            <mxPoint as="offset" />
          </mxGeometry>
        </mxCell>
        <mxCell id="CWmGrvaaXz-5sUjLNDUD-7" value="1" style="edgeLabel;html=1;align=center;verticalAlign=middle;resizable=0;points=[];" parent="CWmGrvaaXz-5sUjLNDUD-4" vertex="1" connectable="0">
          <mxGeometry x="0.6648" y="-3" relative="1" as="geometry">
            <mxPoint as="offset" />
          </mxGeometry>
        </mxCell>
        <mxCell id="CWmGrvaaXz-5sUjLNDUD-8" value="has a" style="edgeLabel;html=1;align=center;verticalAlign=middle;resizable=0;points=[];" parent="CWmGrvaaXz-5sUjLNDUD-4" vertex="1" connectable="0">
          <mxGeometry x="0.095" y="2" relative="1" as="geometry">
            <mxPoint as="offset" />
          </mxGeometry>
        </mxCell>
        <mxCell id="hqC6DK22-AnRsCOv8kU1-8" style="edgeStyle=orthogonalEdgeStyle;rounded=0;orthogonalLoop=1;jettySize=auto;html=1;endArrow=none;endFill=0;startArrow=diamondThin;startFill=0;endSize=6;startSize=24;" parent="WIyWlLk6GJQsqaUBKTNV-1" source="7qF5mrvs6irYJMopvK7C-15" target="hqC6DK22-AnRsCOv8kU1-4" edge="1">
          <mxGeometry relative="1" as="geometry">
            <Array as="points">
              <mxPoint x="-130" y="410" />
              <mxPoint x="-130" y="410" />
            </Array>
          </mxGeometry>
        </mxCell>
        <mxCell id="hqC6DK22-AnRsCOv8kU1-9" value="Influences" style="edgeLabel;html=1;align=center;verticalAlign=middle;resizable=0;points=[];" parent="hqC6DK22-AnRsCOv8kU1-8" vertex="1" connectable="0">
          <mxGeometry x="-0.2336" relative="1" as="geometry">
            <mxPoint y="11" as="offset" />
          </mxGeometry>
        </mxCell>
        <mxCell id="hqC6DK22-AnRsCOv8kU1-11" value="1" style="edgeLabel;html=1;align=center;verticalAlign=middle;resizable=0;points=[];" parent="hqC6DK22-AnRsCOv8kU1-8" vertex="1" connectable="0">
          <mxGeometry x="0.757" relative="1" as="geometry">
            <mxPoint as="offset" />
          </mxGeometry>
        </mxCell>
        <mxCell id="hqC6DK22-AnRsCOv8kU1-17" value="1" style="edgeLabel;html=1;align=center;verticalAlign=middle;resizable=0;points=[];" parent="hqC6DK22-AnRsCOv8kU1-8" vertex="1" connectable="0">
          <mxGeometry x="-0.2523" y="1" relative="1" as="geometry">
            <mxPoint y="-8" as="offset" />
          </mxGeometry>
        </mxCell>
        <mxCell id="7qF5mrvs6irYJMopvK7C-15" value="Session" style="swimlane;fontStyle=1;align=center;verticalAlign=top;childLayout=stackLayout;horizontal=1;startSize=26;horizontalStack=0;resizeParent=1;resizeParentMax=0;resizeLast=0;collapsible=1;marginBottom=0;" parent="WIyWlLk6GJQsqaUBKTNV-1" vertex="1">
          <mxGeometry x="-270" y="260" width="280" height="118" as="geometry" />
        </mxCell>
        <mxCell id="7qF5mrvs6irYJMopvK7C-16" value="- paragraph_num: int&#xa;- output_device&#xa;- project_directory&#xa;" style="text;strokeColor=none;fillColor=none;align=left;verticalAlign=top;spacingLeft=4;spacingRight=4;overflow=hidden;rotatable=0;points=[[0,0.5],[1,0.5]];portConstraint=eastwest;" parent="7qF5mrvs6irYJMopvK7C-15" vertex="1">
          <mxGeometry y="26" width="280" height="44" as="geometry" />
        </mxCell>
        <mxCell id="7qF5mrvs6irYJMopvK7C-17" value="" style="line;strokeWidth=1;fillColor=none;align=left;verticalAlign=middle;spacingTop=-1;spacingLeft=3;spacingRight=3;rotatable=0;labelPosition=right;points=[];portConstraint=eastwest;" parent="7qF5mrvs6irYJMopvK7C-15" vertex="1">
          <mxGeometry y="70" width="280" height="8" as="geometry" />
        </mxCell>
        <mxCell id="7qF5mrvs6irYJMopvK7C-18" value="+ save(project_name: string, paragraph_num: int)&#xa;+ load(project_name: string): Session&#xa;" style="text;strokeColor=none;fillColor=none;align=left;verticalAlign=top;spacingLeft=4;spacingRight=4;overflow=hidden;rotatable=0;points=[[0,0.5],[1,0.5]];portConstraint=eastwest;" parent="7qF5mrvs6irYJMopvK7C-15" vertex="1">
          <mxGeometry y="78" width="280" height="40" as="geometry" />
        </mxCell>
        <mxCell id="7qF5mrvs6irYJMopvK7C-26" value="Counter" style="swimlane;fontStyle=1;align=center;verticalAlign=top;childLayout=stackLayout;horizontal=1;startSize=26;horizontalStack=0;resizeParent=1;resizeParentMax=0;resizeLast=0;collapsible=1;marginBottom=0;" parent="WIyWlLk6GJQsqaUBKTNV-1" vertex="1">
          <mxGeometry x="125" y="847.5" width="160" height="124" as="geometry" />
        </mxCell>
        <mxCell id="7qF5mrvs6irYJMopvK7C-27" value="- progress_label&#xa;&#xa;- current_pos: int&#xa;- total_num_items: int" style="text;strokeColor=none;fillColor=none;align=left;verticalAlign=top;spacingLeft=4;spacingRight=4;overflow=hidden;rotatable=0;points=[[0,0.5],[1,0.5]];portConstraint=eastwest;" parent="7qF5mrvs6irYJMopvK7C-26" vertex="1">
          <mxGeometry y="26" width="160" height="64" as="geometry" />
        </mxCell>
        <mxCell id="7qF5mrvs6irYJMopvK7C-28" value="" style="line;strokeWidth=1;fillColor=none;align=left;verticalAlign=middle;spacingTop=-1;spacingLeft=3;spacingRight=3;rotatable=0;labelPosition=right;points=[];portConstraint=eastwest;" parent="7qF5mrvs6irYJMopvK7C-26" vertex="1">
          <mxGeometry y="90" width="160" height="8" as="geometry" />
        </mxCell>
        <mxCell id="7qF5mrvs6irYJMopvK7C-29" value="+ update_current(pos: int)" style="text;strokeColor=none;fillColor=none;align=left;verticalAlign=top;spacingLeft=4;spacingRight=4;overflow=hidden;rotatable=0;points=[[0,0.5],[1,0.5]];portConstraint=eastwest;" parent="7qF5mrvs6irYJMopvK7C-26" vertex="1">
          <mxGeometry y="98" width="160" height="26" as="geometry" />
        </mxCell>
        <mxCell id="7qF5mrvs6irYJMopvK7C-30" style="edgeStyle=orthogonalEdgeStyle;rounded=0;orthogonalLoop=1;jettySize=auto;html=1;endArrow=diamondThin;endFill=0;endSize=24;exitX=0.5;exitY=0;exitDx=0;exitDy=0;" parent="WIyWlLk6GJQsqaUBKTNV-1" source="7qF5mrvs6irYJMopvK7C-26" target="7qF5mrvs6irYJMopvK7C-4" edge="1">
          <mxGeometry relative="1" as="geometry" />
        </mxCell>
        <mxCell id="7qF5mrvs6irYJMopvK7C-31" value="1" style="edgeLabel;html=1;align=center;verticalAlign=middle;resizable=0;points=[];" parent="7qF5mrvs6irYJMopvK7C-30" vertex="1" connectable="0">
          <mxGeometry x="-0.9358" y="2" relative="1" as="geometry">
            <mxPoint as="offset" />
          </mxGeometry>
        </mxCell>
        <mxCell id="7qF5mrvs6irYJMopvK7C-32" value="1" style="edgeLabel;html=1;align=center;verticalAlign=middle;resizable=0;points=[];" parent="7qF5mrvs6irYJMopvK7C-30" vertex="1" connectable="0">
          <mxGeometry x="0.7914" relative="1" as="geometry">
            <mxPoint x="-5" y="19" as="offset" />
          </mxGeometry>
        </mxCell>
        <mxCell id="7qF5mrvs6irYJMopvK7C-33" value="Keeps track of the progress of paragraphs" style="edgeLabel;html=1;align=center;verticalAlign=middle;resizable=0;points=[];" parent="7qF5mrvs6irYJMopvK7C-30" vertex="1" connectable="0">
          <mxGeometry x="-0.1765" y="-1" relative="1" as="geometry">
            <mxPoint x="24" as="offset" />
          </mxGeometry>
        </mxCell>
        <mxCell id="uqKv1nTXKA7kdlYmjU6h-12" style="edgeStyle=orthogonalEdgeStyle;rounded=0;orthogonalLoop=1;jettySize=auto;html=1;endArrow=diamondThin;endFill=0;endSize=24;entryX=0.321;entryY=0;entryDx=0;entryDy=0;entryPerimeter=0;" parent="WIyWlLk6GJQsqaUBKTNV-1" source="uqKv1nTXKA7kdlYmjU6h-4" target="7qF5mrvs6irYJMopvK7C-15" edge="1">
          <mxGeometry relative="1" as="geometry" />
        </mxCell>
        <mxCell id="uqKv1nTXKA7kdlYmjU6h-13" value="1" style="edgeLabel;html=1;align=center;verticalAlign=middle;resizable=0;points=[];" parent="uqKv1nTXKA7kdlYmjU6h-12" vertex="1" connectable="0">
          <mxGeometry x="-0.8235" y="-2" relative="1" as="geometry">
            <mxPoint as="offset" />
          </mxGeometry>
        </mxCell>
        <mxCell id="uqKv1nTXKA7kdlYmjU6h-14" value="1" style="edgeLabel;html=1;align=center;verticalAlign=middle;resizable=0;points=[];" parent="uqKv1nTXKA7kdlYmjU6h-12" vertex="1" connectable="0">
          <mxGeometry x="0.3971" relative="1" as="geometry">
            <mxPoint as="offset" />
          </mxGeometry>
        </mxCell>
        <mxCell id="uqKv1nTXKA7kdlYmjU6h-15" value="has" style="edgeLabel;html=1;align=center;verticalAlign=middle;resizable=0;points=[];" parent="uqKv1nTXKA7kdlYmjU6h-12" vertex="1" connectable="0">
          <mxGeometry x="-0.3015" y="2" relative="1" as="geometry">
            <mxPoint as="offset" />
          </mxGeometry>
        </mxCell>
        <mxCell id="uqKv1nTXKA7kdlYmjU6h-4" value="AudioInput" style="swimlane;fontStyle=1;align=center;verticalAlign=top;childLayout=stackLayout;horizontal=1;startSize=26;horizontalStack=0;resizeParent=1;resizeParentMax=0;resizeLast=0;collapsible=1;marginBottom=0;" parent="WIyWlLk6GJQsqaUBKTNV-1" vertex="1">
          <mxGeometry x="-360" y="100" width="160" height="80" as="geometry" />
        </mxCell>
        <mxCell id="uqKv1nTXKA7kdlYmjU6h-5" value="- sample_rate&#xa;- channels&#xa;- input_device" style="text;strokeColor=none;fillColor=none;align=left;verticalAlign=top;spacingLeft=4;spacingRight=4;overflow=hidden;rotatable=0;points=[[0,0.5],[1,0.5]];portConstraint=eastwest;" parent="uqKv1nTXKA7kdlYmjU6h-4" vertex="1">
          <mxGeometry y="26" width="160" height="54" as="geometry" />
        </mxCell>
        <mxCell id="uqKv1nTXKA7kdlYmjU6h-28" style="edgeStyle=orthogonalEdgeStyle;rounded=0;orthogonalLoop=1;jettySize=auto;html=1;entryX=0.622;entryY=-0.006;entryDx=0;entryDy=0;entryPerimeter=0;endArrow=diamondThin;endFill=0;endSize=24;" parent="WIyWlLk6GJQsqaUBKTNV-1" source="uqKv1nTXKA7kdlYmjU6h-24" target="7qF5mrvs6irYJMopvK7C-15" edge="1">
          <mxGeometry relative="1" as="geometry" />
        </mxCell>
        <mxCell id="uqKv1nTXKA7kdlYmjU6h-29" value="has" style="edgeLabel;html=1;align=center;verticalAlign=middle;resizable=0;points=[];" parent="uqKv1nTXKA7kdlYmjU6h-28" vertex="1" connectable="0">
          <mxGeometry x="-0.2259" y="3" relative="1" as="geometry">
            <mxPoint x="1" as="offset" />
          </mxGeometry>
        </mxCell>
        <mxCell id="uqKv1nTXKA7kdlYmjU6h-30" value="1" style="edgeLabel;html=1;align=center;verticalAlign=middle;resizable=0;points=[];" parent="uqKv1nTXKA7kdlYmjU6h-28" vertex="1" connectable="0">
          <mxGeometry x="0.5577" relative="1" as="geometry">
            <mxPoint as="offset" />
          </mxGeometry>
        </mxCell>
        <mxCell id="uqKv1nTXKA7kdlYmjU6h-31" value="1" style="edgeLabel;html=1;align=center;verticalAlign=middle;resizable=0;points=[];" parent="uqKv1nTXKA7kdlYmjU6h-28" vertex="1" connectable="0">
          <mxGeometry x="-0.8736" y="1" relative="1" as="geometry">
            <mxPoint as="offset" />
          </mxGeometry>
        </mxCell>
        <mxCell id="uqKv1nTXKA7kdlYmjU6h-24" value="Font" style="swimlane;fontStyle=1;align=center;verticalAlign=top;childLayout=stackLayout;horizontal=1;startSize=26;horizontalStack=0;resizeParent=1;resizeParentMax=0;resizeLast=0;collapsible=1;marginBottom=0;" parent="WIyWlLk6GJQsqaUBKTNV-1" vertex="1">
          <mxGeometry x="-60" y="100" width="160" height="80" as="geometry" />
        </mxCell>
        <mxCell id="uqKv1nTXKA7kdlYmjU6h-25" value="- size: int&#xa;- type" style="text;strokeColor=none;fillColor=none;align=left;verticalAlign=top;spacingLeft=4;spacingRight=4;overflow=hidden;rotatable=0;points=[[0,0.5],[1,0.5]];portConstraint=eastwest;" parent="uqKv1nTXKA7kdlYmjU6h-24" vertex="1">
          <mxGeometry y="26" width="160" height="54" as="geometry" />
        </mxCell>
        <mxCell id="CWmGrvaaXz-5sUjLNDUD-0" value="MainApp" style="swimlane;fontStyle=1;align=center;verticalAlign=top;childLayout=stackLayout;horizontal=1;startSize=26;horizontalStack=0;resizeParent=1;resizeParentMax=0;resizeLast=0;collapsible=1;marginBottom=0;" parent="WIyWlLk6GJQsqaUBKTNV-1" vertex="1">
          <mxGeometry x="230" y="80" width="190" height="190" as="geometry" />
        </mxCell>
        <mxCell id="CWmGrvaaXz-5sUjLNDUD-1" value="- open_item&#xa;- go_to_item&#xa;- preferences_item&#xa;- zoom_in_item&#xa;- zoom_out_item&#xa;- about_item&#xa;- quit_item" style="text;strokeColor=none;fillColor=none;align=left;verticalAlign=top;spacingLeft=4;spacingRight=4;overflow=hidden;rotatable=0;points=[[0,0.5],[1,0.5]];portConstraint=eastwest;" parent="CWmGrvaaXz-5sUjLNDUD-0" vertex="1">
          <mxGeometry y="26" width="190" height="104" as="geometry" />
        </mxCell>
        <mxCell id="CWmGrvaaXz-5sUjLNDUD-2" value="" style="line;strokeWidth=1;fillColor=none;align=left;verticalAlign=middle;spacingTop=-1;spacingLeft=3;spacingRight=3;rotatable=0;labelPosition=right;points=[];portConstraint=eastwest;" parent="CWmGrvaaXz-5sUjLNDUD-0" vertex="1">
          <mxGeometry y="130" width="190" height="8" as="geometry" />
        </mxCell>
        <mxCell id="CWmGrvaaXz-5sUjLNDUD-3" value="+ open(): File&#xa;+ about()&#xa;+ exit()" style="text;strokeColor=none;fillColor=none;align=left;verticalAlign=top;spacingLeft=4;spacingRight=4;overflow=hidden;rotatable=0;points=[[0,0.5],[1,0.5]];portConstraint=eastwest;" parent="CWmGrvaaXz-5sUjLNDUD-0" vertex="1">
          <mxGeometry y="138" width="190" height="52" as="geometry" />
        </mxCell>
        <mxCell id="CWmGrvaaXz-5sUjLNDUD-16" value="&lt;h1&gt;Narrative Director - UML Class Diagram&lt;br&gt;&lt;/h1&gt;" style="text;html=1;strokeColor=none;fillColor=none;align=center;verticalAlign=middle;whiteSpace=wrap;rounded=0;" parent="WIyWlLk6GJQsqaUBKTNV-1" vertex="1">
          <mxGeometry x="20" y="30" width="460" height="30" as="geometry" />
        </mxCell>
        <mxCell id="X5sajKfbFdd7pzfeBl9J-4" style="edgeStyle=orthogonalEdgeStyle;rounded=0;orthogonalLoop=1;jettySize=auto;html=1;endArrow=diamondThin;endFill=0;endSize=24;entryX=0.5;entryY=1;entryDx=0;entryDy=0;exitX=0.5;exitY=0;exitDx=0;exitDy=0;" parent="WIyWlLk6GJQsqaUBKTNV-1" source="X5sajKfbFdd7pzfeBl9J-0" target="CWmGrvaaXz-5sUjLNDUD-0" edge="1">
          <mxGeometry relative="1" as="geometry">
            <mxPoint x="430" y="380" as="targetPoint" />
          </mxGeometry>
        </mxCell>
        <mxCell id="X5sajKfbFdd7pzfeBl9J-5" value="1" style="edgeLabel;html=1;align=center;verticalAlign=middle;resizable=0;points=[];" parent="X5sajKfbFdd7pzfeBl9J-4" vertex="1" connectable="0">
          <mxGeometry x="-0.9408" y="1" relative="1" as="geometry">
            <mxPoint as="offset" />
          </mxGeometry>
        </mxCell>
        <mxCell id="X5sajKfbFdd7pzfeBl9J-6" value="has a" style="edgeLabel;html=1;align=center;verticalAlign=middle;resizable=0;points=[];" parent="X5sajKfbFdd7pzfeBl9J-4" vertex="1" connectable="0">
          <mxGeometry x="-0.365" y="-3" relative="1" as="geometry">
            <mxPoint as="offset" />
          </mxGeometry>
        </mxCell>
        <mxCell id="X5sajKfbFdd7pzfeBl9J-0" value="MediaIO" style="swimlane;fontStyle=1;align=center;verticalAlign=top;childLayout=stackLayout;horizontal=1;startSize=26;horizontalStack=0;resizeParent=1;resizeParentMax=0;resizeLast=0;collapsible=1;marginBottom=0;" parent="WIyWlLk6GJQsqaUBKTNV-1" vertex="1">
          <mxGeometry x="500" y="485" width="220" height="270" as="geometry" />
        </mxCell>
        <mxCell id="X5sajKfbFdd7pzfeBl9J-1" value="- audio_directory&#xa;&#xa;- play_button&#xa;- pause_button&#xa;- stop_button&#xa;- record_button&#xa;&#xa;- video_frame&#xa;&#xa;- progress_bar&#xa;- time_progress_label&#xa;" style="text;strokeColor=none;fillColor=none;align=left;verticalAlign=top;spacingLeft=4;spacingRight=4;overflow=hidden;rotatable=0;points=[[0,0.5],[1,0.5]];portConstraint=eastwest;" parent="X5sajKfbFdd7pzfeBl9J-0" vertex="1">
          <mxGeometry y="26" width="220" height="164" as="geometry" />
        </mxCell>
        <mxCell id="X5sajKfbFdd7pzfeBl9J-2" value="" style="line;strokeWidth=1;fillColor=none;align=left;verticalAlign=middle;spacingTop=-1;spacingLeft=3;spacingRight=3;rotatable=0;labelPosition=right;points=[];portConstraint=eastwest;" parent="X5sajKfbFdd7pzfeBl9J-0" vertex="1">
          <mxGeometry y="190" width="220" height="8" as="geometry" />
        </mxCell>
        <mxCell id="X5sajKfbFdd7pzfeBl9J-3" value="+ record(input_device, paragraph_num)&#xa;+ play(output_device, paragraph_num)&#xa;+ pause_at(pos)&#xa;+ stop()&#xa;" style="text;strokeColor=none;fillColor=none;align=left;verticalAlign=top;spacingLeft=4;spacingRight=4;overflow=hidden;rotatable=0;points=[[0,0.5],[1,0.5]];portConstraint=eastwest;" parent="X5sajKfbFdd7pzfeBl9J-0" vertex="1">
          <mxGeometry y="198" width="220" height="72" as="geometry" />
        </mxCell>
        <mxCell id="VSH80lzQ6H8g-4Em9pre-4" style="edgeStyle=orthogonalEdgeStyle;rounded=0;orthogonalLoop=1;jettySize=auto;html=1;entryX=0.5;entryY=1;entryDx=0;entryDy=0;endArrow=diamondThin;endFill=0;endSize=24;" parent="WIyWlLk6GJQsqaUBKTNV-1" source="VSH80lzQ6H8g-4Em9pre-0" target="X5sajKfbFdd7pzfeBl9J-0" edge="1">
          <mxGeometry relative="1" as="geometry" />
        </mxCell>
        <mxCell id="VSH80lzQ6H8g-4Em9pre-0" value="Playback Tracker" style="swimlane;fontStyle=1;align=center;verticalAlign=top;childLayout=stackLayout;horizontal=1;startSize=26;horizontalStack=0;resizeParent=1;resizeParentMax=0;resizeLast=0;collapsible=1;marginBottom=0;" parent="WIyWlLk6GJQsqaUBKTNV-1" vertex="1">
          <mxGeometry x="530" y="847.5" width="160" height="160" as="geometry" />
        </mxCell>
        <mxCell id="VSH80lzQ6H8g-4Em9pre-1" value="- time_label&#xa;- progress_bar&#xa;&#xa;- current_pos: int&#xa;- total: int&#xa;" style="text;strokeColor=none;fillColor=none;align=left;verticalAlign=top;spacingLeft=4;spacingRight=4;overflow=hidden;rotatable=0;points=[[0,0.5],[1,0.5]];portConstraint=eastwest;" parent="VSH80lzQ6H8g-4Em9pre-0" vertex="1">
          <mxGeometry y="26" width="160" height="74" as="geometry" />
        </mxCell>
        <mxCell id="VSH80lzQ6H8g-4Em9pre-2" value="" style="line;strokeWidth=1;fillColor=none;align=left;verticalAlign=middle;spacingTop=-1;spacingLeft=3;spacingRight=3;rotatable=0;labelPosition=right;points=[];portConstraint=eastwest;" parent="VSH80lzQ6H8g-4Em9pre-0" vertex="1">
          <mxGeometry y="100" width="160" height="8" as="geometry" />
        </mxCell>
        <mxCell id="VSH80lzQ6H8g-4Em9pre-3" value="+ update_current(pos: int)&#xa;+ update_total(total: int)&#xa;+ reset()&#xa;" style="text;strokeColor=none;fillColor=none;align=left;verticalAlign=top;spacingLeft=4;spacingRight=4;overflow=hidden;rotatable=0;points=[[0,0.5],[1,0.5]];portConstraint=eastwest;" parent="VSH80lzQ6H8g-4Em9pre-0" vertex="1">
          <mxGeometry y="108" width="160" height="52" as="geometry" />
        </mxCell>
        <mxCell id="hqC6DK22-AnRsCOv8kU1-12" style="edgeStyle=orthogonalEdgeStyle;rounded=0;orthogonalLoop=1;jettySize=auto;html=1;startArrow=none;startFill=0;endArrow=diamondThin;endFill=0;startSize=6;endSize=24;" parent="WIyWlLk6GJQsqaUBKTNV-1" source="hqC6DK22-AnRsCOv8kU1-0" target="CWmGrvaaXz-5sUjLNDUD-0" edge="1">
          <mxGeometry relative="1" as="geometry" />
        </mxCell>
        <mxCell id="hqC6DK22-AnRsCOv8kU1-13" value="1" style="edgeLabel;html=1;align=center;verticalAlign=middle;resizable=0;points=[];" parent="hqC6DK22-AnRsCOv8kU1-12" vertex="1" connectable="0">
          <mxGeometry x="-0.8632" y="1" relative="1" as="geometry">
            <mxPoint as="offset" />
          </mxGeometry>
        </mxCell>
        <mxCell id="hqC6DK22-AnRsCOv8kU1-14" value="1" style="edgeLabel;html=1;align=center;verticalAlign=middle;resizable=0;points=[];" parent="hqC6DK22-AnRsCOv8kU1-12" vertex="1" connectable="0">
          <mxGeometry x="0.4842" relative="1" as="geometry">
            <mxPoint x="-9" as="offset" />
          </mxGeometry>
        </mxCell>
        <mxCell id="hqC6DK22-AnRsCOv8kU1-15" value="has a" style="edgeLabel;html=1;align=center;verticalAlign=middle;resizable=0;points=[];" parent="hqC6DK22-AnRsCOv8kU1-12" vertex="1" connectable="0">
          <mxGeometry x="-0.2316" y="1" relative="1" as="geometry">
            <mxPoint as="offset" />
          </mxGeometry>
        </mxCell>
        <mxCell id="hqC6DK22-AnRsCOv8kU1-0" value="GotoPrompt" style="swimlane;fontStyle=1;align=center;verticalAlign=top;childLayout=stackLayout;horizontal=1;startSize=26;horizontalStack=0;resizeParent=1;resizeParentMax=0;resizeLast=0;collapsible=1;marginBottom=0;" parent="WIyWlLk6GJQsqaUBKTNV-1" vertex="1">
          <mxGeometry x="560" y="80" width="240" height="130" as="geometry" />
        </mxCell>
        <mxCell id="hqC6DK22-AnRsCOv8kU1-1" value="- paragraph_number_input&#xa;- ok_button&#xa;- cancel_button" style="text;strokeColor=none;fillColor=none;align=left;verticalAlign=top;spacingLeft=4;spacingRight=4;overflow=hidden;rotatable=0;points=[[0,0.5],[1,0.5]];portConstraint=eastwest;" parent="hqC6DK22-AnRsCOv8kU1-0" vertex="1">
          <mxGeometry y="26" width="240" height="44" as="geometry" />
        </mxCell>
        <mxCell id="hqC6DK22-AnRsCOv8kU1-2" value="" style="line;strokeWidth=1;fillColor=none;align=left;verticalAlign=middle;spacingTop=-1;spacingLeft=3;spacingRight=3;rotatable=0;labelPosition=right;points=[];portConstraint=eastwest;" parent="hqC6DK22-AnRsCOv8kU1-0" vertex="1">
          <mxGeometry y="70" width="240" height="8" as="geometry" />
        </mxCell>
        <mxCell id="hqC6DK22-AnRsCOv8kU1-3" value="+ get_paragraph_number(): Optional&lt;int&gt;&#xa;+ show()&#xa;- hide()" style="text;strokeColor=none;fillColor=none;align=left;verticalAlign=top;spacingLeft=4;spacingRight=4;overflow=hidden;rotatable=0;points=[[0,0.5],[1,0.5]];portConstraint=eastwest;" parent="hqC6DK22-AnRsCOv8kU1-0" vertex="1">
          <mxGeometry y="78" width="240" height="52" as="geometry" />
        </mxCell>
        <mxCell id="hqC6DK22-AnRsCOv8kU1-4" value="PreferencesDialog" style="swimlane;fontStyle=1;align=center;verticalAlign=top;childLayout=stackLayout;horizontal=1;startSize=26;horizontalStack=0;resizeParent=1;resizeParentMax=0;resizeLast=0;collapsible=1;marginBottom=0;" parent="WIyWlLk6GJQsqaUBKTNV-1" vertex="1">
          <mxGeometry x="-210" y="485" width="190" height="270" as="geometry" />
        </mxCell>
        <mxCell id="hqC6DK22-AnRsCOv8kU1-5" value="- project_directory_input&#xa;- font_input&#xa;&#xa;- audio_output_input&#xa;&#xa;- audio_input_sample_rate_input&#xa;- audio_input_channels_input&#xa;&#xa;- video_input_frames_per_second&#xa;- video_input_device&#xa;&#xa;- ok_button&#xa;- cancel_button" style="text;strokeColor=none;fillColor=none;align=left;verticalAlign=top;spacingLeft=4;spacingRight=4;overflow=hidden;rotatable=0;points=[[0,0.5],[1,0.5]];portConstraint=eastwest;" parent="hqC6DK22-AnRsCOv8kU1-4" vertex="1">
          <mxGeometry y="26" width="190" height="194" as="geometry" />
        </mxCell>
        <mxCell id="hqC6DK22-AnRsCOv8kU1-6" value="" style="line;strokeWidth=1;fillColor=none;align=left;verticalAlign=middle;spacingTop=-1;spacingLeft=3;spacingRight=3;rotatable=0;labelPosition=right;points=[];portConstraint=eastwest;" parent="hqC6DK22-AnRsCOv8kU1-4" vertex="1">
          <mxGeometry y="220" width="190" height="8" as="geometry" />
        </mxCell>
        <mxCell id="hqC6DK22-AnRsCOv8kU1-7" value="+ show()&#xa;- hide()" style="text;strokeColor=none;fillColor=none;align=left;verticalAlign=top;spacingLeft=4;spacingRight=4;overflow=hidden;rotatable=0;points=[[0,0.5],[1,0.5]];portConstraint=eastwest;" parent="hqC6DK22-AnRsCOv8kU1-4" vertex="1">
          <mxGeometry y="228" width="190" height="42" as="geometry" />
        </mxCell>
        <mxCell id="0YaQTY8Ndlg-2hguQMMq-0" value="VideoInput" style="swimlane;fontStyle=1;align=center;verticalAlign=top;childLayout=stackLayout;horizontal=1;startSize=26;horizontalStack=0;resizeParent=1;resizeParentMax=0;resizeLast=0;collapsible=1;marginBottom=0;" vertex="1" parent="WIyWlLk6GJQsqaUBKTNV-1">
          <mxGeometry x="-560" y="260" width="160" height="70" as="geometry" />
        </mxCell>
        <mxCell id="0YaQTY8Ndlg-2hguQMMq-1" value="- frames_per_second&#xa;- input_device" style="text;strokeColor=none;fillColor=none;align=left;verticalAlign=top;spacingLeft=4;spacingRight=4;overflow=hidden;rotatable=0;points=[[0,0.5],[1,0.5]];portConstraint=eastwest;" vertex="1" parent="0YaQTY8Ndlg-2hguQMMq-0">
          <mxGeometry y="26" width="160" height="44" as="geometry" />
        </mxCell>
        <mxCell id="0YaQTY8Ndlg-2hguQMMq-2" style="edgeStyle=orthogonalEdgeStyle;rounded=0;orthogonalLoop=1;jettySize=auto;html=1;endArrow=diamondThin;endFill=0;endSize=24;" edge="1" parent="WIyWlLk6GJQsqaUBKTNV-1" source="0YaQTY8Ndlg-2hguQMMq-0" target="7qF5mrvs6irYJMopvK7C-15">
          <mxGeometry relative="1" as="geometry">
            <mxPoint x="-400" y="298" as="sourcePoint" />
            <mxPoint x="-300" y="378" as="targetPoint" />
          </mxGeometry>
        </mxCell>
        <mxCell id="0YaQTY8Ndlg-2hguQMMq-3" value="1" style="edgeLabel;html=1;align=center;verticalAlign=middle;resizable=0;points=[];" vertex="1" connectable="0" parent="0YaQTY8Ndlg-2hguQMMq-2">
          <mxGeometry x="-0.8235" y="-2" relative="1" as="geometry">
            <mxPoint as="offset" />
          </mxGeometry>
        </mxCell>
        <mxCell id="0YaQTY8Ndlg-2hguQMMq-4" value="1" style="edgeLabel;html=1;align=center;verticalAlign=middle;resizable=0;points=[];" vertex="1" connectable="0" parent="0YaQTY8Ndlg-2hguQMMq-2">
          <mxGeometry x="0.3971" relative="1" as="geometry">
            <mxPoint as="offset" />
          </mxGeometry>
        </mxCell>
        <mxCell id="0YaQTY8Ndlg-2hguQMMq-5" value="has" style="edgeLabel;html=1;align=center;verticalAlign=middle;resizable=0;points=[];" vertex="1" connectable="0" parent="0YaQTY8Ndlg-2hguQMMq-2">
          <mxGeometry x="-0.3015" y="2" relative="1" as="geometry">
            <mxPoint as="offset" />
          </mxGeometry>
        </mxCell>
      </root>
    </mxGraphModel>
  </diagram>
</mxfile>
